<mxfile host="app.diagrams.net" modified="2023-11-10T09:20:12.827Z" agent="Mozilla/5.0 (Windows NT 10.0; Win64; x64) AppleWebKit/537.36 (KHTML, like Gecko) Chrome/105.0.0.0 Safari/537.36" etag="VNL8I4JinxjWFI3CVm2-" version="22.1.0" type="github">
  <diagram id="kIhp9bexJHAAIo17bb_m" name="XXOO">
    <mxGraphModel dx="934" dy="515" grid="1" gridSize="10" guides="1" tooltips="1" connect="1" arrows="1" fold="1" page="1" pageScale="1" pageWidth="827" pageHeight="1169" math="0" shadow="0">
      <root>
        <mxCell id="0" />
        <mxCell id="1" parent="0" />
        <mxCell id="TmSKtHvz9TjnMnHHMxjV-2" value="&lt;font&gt;非研发区（绿区）&lt;/font&gt;" style="rounded=0;whiteSpace=wrap;html=1;strokeColor=#2D7600;horizontal=1;verticalAlign=top;fontColor=#ffffff;fillColor=#60a917;" parent="1" vertex="1">
          <mxGeometry x="80" y="160" width="170" height="130" as="geometry" />
        </mxCell>
        <mxCell id="TmSKtHvz9TjnMnHHMxjV-3" value="办公PC" style="rounded=1;whiteSpace=wrap;html=1;" parent="1" vertex="1">
          <mxGeometry x="90" y="190" width="70" height="40" as="geometry" />
        </mxCell>
        <mxCell id="TmSKtHvz9TjnMnHHMxjV-5" value="办公云" style="rounded=1;whiteSpace=wrap;html=1;" parent="1" vertex="1">
          <mxGeometry x="170" y="190" width="70" height="40" as="geometry" />
        </mxCell>
        <mxCell id="TmSKtHvz9TjnMnHHMxjV-6" value="IOT设备" style="rounded=1;whiteSpace=wrap;html=1;" parent="1" vertex="1">
          <mxGeometry x="90" y="240" width="70" height="40" as="geometry" />
        </mxCell>
        <mxCell id="TmSKtHvz9TjnMnHHMxjV-7" value="&lt;font&gt;研发区（黄区）&lt;/font&gt;" style="rounded=0;whiteSpace=wrap;html=1;strokeColor=#000000;horizontal=1;verticalAlign=top;fontColor=#ffffff;fillColor=#FF9933;" parent="1" vertex="1">
          <mxGeometry x="80" y="305" width="170" height="80" as="geometry" />
        </mxCell>
        <mxCell id="TmSKtHvz9TjnMnHHMxjV-8" value="研发云桌面" style="rounded=1;whiteSpace=wrap;html=1;" parent="1" vertex="1">
          <mxGeometry x="100" y="335" width="130" height="40" as="geometry" />
        </mxCell>
        <mxCell id="TmSKtHvz9TjnMnHHMxjV-11" value="&lt;font&gt;生产制造区（蓝区）&lt;/font&gt;" style="rounded=0;whiteSpace=wrap;html=1;strokeColor=#006EAF;horizontal=1;verticalAlign=top;fontColor=#ffffff;fillColor=#1ba1e2;" parent="1" vertex="1">
          <mxGeometry x="80" y="400" width="170" height="130" as="geometry" />
        </mxCell>
        <mxCell id="TmSKtHvz9TjnMnHHMxjV-12" value="工控设备" style="rounded=1;whiteSpace=wrap;html=1;" parent="1" vertex="1">
          <mxGeometry x="90" y="480" width="70" height="40" as="geometry" />
        </mxCell>
        <mxCell id="TmSKtHvz9TjnMnHHMxjV-13" value="云桌面" style="rounded=1;whiteSpace=wrap;html=1;" parent="1" vertex="1">
          <mxGeometry x="170" y="430" width="70" height="40" as="geometry" />
        </mxCell>
        <mxCell id="TmSKtHvz9TjnMnHHMxjV-14" value="产线PC" style="rounded=1;whiteSpace=wrap;html=1;" parent="1" vertex="1">
          <mxGeometry x="90" y="430" width="70" height="40" as="geometry" />
        </mxCell>
        <mxCell id="TmSKtHvz9TjnMnHHMxjV-15" value="... ..." style="rounded=1;whiteSpace=wrap;html=1;" parent="1" vertex="1">
          <mxGeometry x="170" y="480" width="70" height="40" as="geometry" />
        </mxCell>
        <mxCell id="TmSKtHvz9TjnMnHHMxjV-16" value="... ..." style="rounded=1;whiteSpace=wrap;html=1;" parent="1" vertex="1">
          <mxGeometry x="170" y="240" width="70" height="40" as="geometry" />
        </mxCell>
        <mxCell id="HWRnUKovmFwmvKjL5Wyl-1" value="" style="endArrow=none;dashed=1;html=1;rounded=0;" parent="1" edge="1">
          <mxGeometry width="50" height="50" relative="1" as="geometry">
            <mxPoint x="280" y="540" as="sourcePoint" />
            <mxPoint x="280" y="140" as="targetPoint" />
          </mxGeometry>
        </mxCell>
        <mxCell id="HWRnUKovmFwmvKjL5Wyl-6" value="&lt;font&gt;非研发区（绿区）&lt;/font&gt;" style="rounded=0;whiteSpace=wrap;html=1;strokeColor=#000000;horizontal=1;verticalAlign=top;fontColor=#ffffff;fillColor=#60a917;" parent="1" vertex="1">
          <mxGeometry x="310" y="160" width="170" height="130" as="geometry" />
        </mxCell>
        <mxCell id="HWRnUKovmFwmvKjL5Wyl-7" value="办公PC" style="rounded=1;whiteSpace=wrap;html=1;" parent="1" vertex="1">
          <mxGeometry x="320" y="191" width="70" height="40" as="geometry" />
        </mxCell>
        <mxCell id="HWRnUKovmFwmvKjL5Wyl-8" value="办公云" style="rounded=1;whiteSpace=wrap;html=1;" parent="1" vertex="1">
          <mxGeometry x="400" y="191" width="70" height="40" as="geometry" />
        </mxCell>
        <mxCell id="HWRnUKovmFwmvKjL5Wyl-9" value="IOT设备" style="rounded=1;whiteSpace=wrap;html=1;" parent="1" vertex="1">
          <mxGeometry x="320" y="241" width="70" height="40" as="geometry" />
        </mxCell>
        <mxCell id="HWRnUKovmFwmvKjL5Wyl-10" value="... ..." style="rounded=1;whiteSpace=wrap;html=1;" parent="1" vertex="1">
          <mxGeometry x="400" y="241" width="70" height="40" as="geometry" />
        </mxCell>
        <mxCell id="HWRnUKovmFwmvKjL5Wyl-11" value="&lt;font&gt;研发区（黄区）&lt;/font&gt;" style="rounded=0;whiteSpace=wrap;html=1;strokeColor=#000000;horizontal=1;verticalAlign=top;fontColor=#ffffff;fillColor=#FF9933;" parent="1" vertex="1">
          <mxGeometry x="310" y="305" width="170" height="80" as="geometry" />
        </mxCell>
        <mxCell id="HWRnUKovmFwmvKjL5Wyl-12" value="IPD领域" style="rounded=1;whiteSpace=wrap;html=1;" parent="1" vertex="1">
          <mxGeometry x="320" y="335" width="70" height="40" as="geometry" />
        </mxCell>
        <mxCell id="HWRnUKovmFwmvKjL5Wyl-13" value="编译云" style="rounded=1;whiteSpace=wrap;html=1;" parent="1" vertex="1">
          <mxGeometry x="400" y="335" width="70" height="40" as="geometry" />
        </mxCell>
        <mxCell id="HWRnUKovmFwmvKjL5Wyl-15" value="&lt;font&gt;生产制造区（蓝区）&lt;/font&gt;" style="rounded=0;whiteSpace=wrap;html=1;strokeColor=#000000;horizontal=1;verticalAlign=top;fontColor=#ffffff;fillColor=#1ba1e2;" parent="1" vertex="1">
          <mxGeometry x="310" y="400" width="170" height="80" as="geometry" />
        </mxCell>
        <mxCell id="HWRnUKovmFwmvKjL5Wyl-16" value="ISC领域" style="rounded=1;whiteSpace=wrap;html=1;" parent="1" vertex="1">
          <mxGeometry x="325" y="430" width="140" height="40" as="geometry" />
        </mxCell>
        <mxCell id="HWRnUKovmFwmvKjL5Wyl-17" value="" style="endArrow=none;dashed=1;html=1;rounded=0;" parent="1" edge="1">
          <mxGeometry width="50" height="50" relative="1" as="geometry">
            <mxPoint x="500" y="540" as="sourcePoint" />
            <mxPoint x="500" y="140" as="targetPoint" />
          </mxGeometry>
        </mxCell>
        <mxCell id="HWRnUKovmFwmvKjL5Wyl-18" value="&lt;font color=&quot;#000000&quot;&gt;IT专区（IT服务）&lt;/font&gt;" style="rounded=0;whiteSpace=wrap;html=1;strokeColor=#2D7600;horizontal=1;verticalAlign=top;fontColor=#ffffff;fillColor=none;" parent="1" vertex="1">
          <mxGeometry x="520" y="160" width="120" height="180" as="geometry" />
        </mxCell>
        <mxCell id="HWRnUKovmFwmvKjL5Wyl-19" value="接入服务" style="rounded=0;whiteSpace=wrap;html=1;dashed=1;" parent="1" vertex="1">
          <mxGeometry x="535" y="194.5" width="95" height="31" as="geometry" />
        </mxCell>
        <mxCell id="HWRnUKovmFwmvKjL5Wyl-20" value="IT服务专区VPC（绿区）" style="rounded=0;whiteSpace=wrap;html=1;fillColor=#60a917;fontColor=#ffffff;strokeColor=#2D7600;" parent="1" vertex="1">
          <mxGeometry x="535" y="240" width="95" height="40" as="geometry" />
        </mxCell>
        <mxCell id="HWRnUKovmFwmvKjL5Wyl-21" value="&lt;font color=&quot;#000000&quot;&gt;OPPO云公共区&lt;/font&gt;" style="rounded=0;whiteSpace=wrap;html=1;strokeColor=#000000;horizontal=1;verticalAlign=top;fontColor=#ffffff;fillColor=none;" parent="1" vertex="1">
          <mxGeometry x="662" y="160" width="110" height="360" as="geometry" />
        </mxCell>
        <mxCell id="HWRnUKovmFwmvKjL5Wyl-24" value="&lt;font color=&quot;#000000&quot;&gt;IT专区（IPD研发）&lt;/font&gt;" style="rounded=0;whiteSpace=wrap;html=1;strokeColor=#2D7600;horizontal=1;verticalAlign=top;fontColor=#ffffff;fillColor=none;" parent="1" vertex="1">
          <mxGeometry x="520" y="365" width="120" height="155" as="geometry" />
        </mxCell>
        <mxCell id="HWRnUKovmFwmvKjL5Wyl-27" value="&lt;b&gt;&lt;font style=&quot;font-size: 18px;&quot;&gt;办公网络&lt;/font&gt;&lt;/b&gt;" style="text;html=1;strokeColor=none;fillColor=none;align=center;verticalAlign=middle;whiteSpace=wrap;rounded=0;" parent="1" vertex="1">
          <mxGeometry x="120" y="110" width="90" height="30" as="geometry" />
        </mxCell>
        <mxCell id="HWRnUKovmFwmvKjL5Wyl-29" value="&lt;b&gt;&lt;font style=&quot;font-size: 18px;&quot;&gt;云下数据中心网络&lt;/font&gt;&lt;/b&gt;" style="text;html=1;strokeColor=none;fillColor=none;align=center;verticalAlign=middle;whiteSpace=wrap;rounded=0;" parent="1" vertex="1">
          <mxGeometry x="325" y="110" width="150" height="30" as="geometry" />
        </mxCell>
        <mxCell id="HWRnUKovmFwmvKjL5Wyl-30" value="&lt;b&gt;&lt;font style=&quot;font-size: 18px;&quot;&gt;OPPO云网络&lt;/font&gt;&lt;/b&gt;" style="text;html=1;strokeColor=none;fillColor=none;align=center;verticalAlign=middle;whiteSpace=wrap;rounded=0;" parent="1" vertex="1">
          <mxGeometry x="555" y="110" width="150" height="30" as="geometry" />
        </mxCell>
        <mxCell id="HWRnUKovmFwmvKjL5Wyl-32" value="IT产线专区VPC（蓝区）" style="rounded=0;whiteSpace=wrap;html=1;fillColor=#1ba1e2;fontColor=#ffffff;strokeColor=#006EAF;" parent="1" vertex="1">
          <mxGeometry x="535" y="289" width="95" height="40" as="geometry" />
        </mxCell>
        <mxCell id="HWRnUKovmFwmvKjL5Wyl-33" value="接入服务" style="rounded=0;whiteSpace=wrap;html=1;dashed=1;" parent="1" vertex="1">
          <mxGeometry x="532.5" y="404.5" width="95" height="25.5" as="geometry" />
        </mxCell>
        <mxCell id="HWRnUKovmFwmvKjL5Wyl-34" value="IPD研发专区VPC（黄区）" style="rounded=0;whiteSpace=wrap;html=1;fillColor=#FF9933;" parent="1" vertex="1">
          <mxGeometry x="532.5" y="450" width="95" height="40" as="geometry" />
        </mxCell>
        <mxCell id="HWRnUKovmFwmvKjL5Wyl-35" value="接入服务" style="rounded=0;whiteSpace=wrap;html=1;dashed=1;" parent="1" vertex="1">
          <mxGeometry x="676.75" y="209" width="80.5" height="31" as="geometry" />
        </mxCell>
        <mxCell id="HWRnUKovmFwmvKjL5Wyl-37" value="计算" style="rounded=0;whiteSpace=wrap;html=1;dashed=1;" parent="1" vertex="1">
          <mxGeometry x="676.75" y="269" width="80.5" height="31" as="geometry" />
        </mxCell>
        <mxCell id="HWRnUKovmFwmvKjL5Wyl-38" value="存储" style="rounded=0;whiteSpace=wrap;html=1;dashed=1;" parent="1" vertex="1">
          <mxGeometry x="676.75" y="329" width="80.5" height="31" as="geometry" />
        </mxCell>
        <mxCell id="HWRnUKovmFwmvKjL5Wyl-39" value="中间件" style="rounded=0;whiteSpace=wrap;html=1;dashed=1;" parent="1" vertex="1">
          <mxGeometry x="676.75" y="389" width="80.5" height="31" as="geometry" />
        </mxCell>
        <mxCell id="HWRnUKovmFwmvKjL5Wyl-40" value="... ..." style="rounded=0;whiteSpace=wrap;html=1;dashed=1;" parent="1" vertex="1">
          <mxGeometry x="676.75" y="450" width="80.5" height="31" as="geometry" />
        </mxCell>
      </root>
    </mxGraphModel>
  </diagram>
</mxfile>
